# xmcd
#
# Track frame offsets: 
#        150
#        18536
#        35040
#        58357
#        75622
#        95770
#        112886
#        130994
#        150244
#        170148
#        191398
#        210187
#        225188
#        249331
#        274065
#        298525
#        312181
#        327762
#
# Disc length: 4593 seconds
#
# Revision: 0
# Processed by: cddbd v1.5.2PL0 Copyright (c) Steve Scherf et al.
# Submitted via: ExactAudioCopy v1.0b1
#
DISCID=ee11ef12
DTITLE=Tina Turner - Tina
DYEAR=2008
DGENRE=R&B
TTITLE0=Steamy Windows
TTITLE1=River Deep Mountain High
TTITLE2=Better Be Good To Me
TTITLE3=The Acid Queen
TTITLE4=What You Get Is What You See
TTITLE5=What's Love Got To Do With It
TTITLE6=Private Dancer
TTITLE7=We Don't Need Another Hero (Thunderdome)
TTITLE8=I Don't Wanna Fight
TTITLE9=Let's Stay Together (Live In Amsterdam)
TTITLE10=I Can't Stand The Rain (Live In Amsterdam)
TTITLE11=Goldeneye
TTITLE12=Addicted To Love (Live at Camden Palace)
TTITLE13=The Best (Live At Wembley Stadium)
TTITLE14=Proud Mary (1993 Version)
TTITLE15=Nutbush City Limits
TTITLE16=It Would Be A Crime (Bonus Track)
TTITLE17=I'm Ready (Bonus Track)
EXTD=
EXTT0=
EXTT1=
EXTT2=
EXTT3=
EXTT4=
EXTT5=
EXTT6=
EXTT7=
EXTT8=
EXTT9=
EXTT10=
EXTT11=
EXTT12=
EXTT13=
EXTT14=
EXTT15=
EXTT16=
EXTT17=
PLAYORDER=
